<svg width="500" height="407" viewBox="0 0 500 407" fill="none" xmlns="http://www.w3.org/2000/svg">
<g clip-path="url(#clip0)">
<path d="M415.967 383.365L415.101 394.625L397.499 388.995L404.712 380.551L415.967 383.365Z" fill="#FEB8B8"/>
<path d="M480.029 379.706L479.162 390.683L469.351 392.091L463.58 386.743L470.217 376.328L480.029 379.706Z" fill="#FEB8B8"/>
<path d="M487.243 239.529C487.243 239.529 495.035 248.536 485.223 262.329C475.411 276.121 463.581 289.632 463.581 289.632L441.647 330.166C441.647 330.166 430.393 369.854 427.795 370.98C425.198 372.106 423.756 367.602 425.198 372.387C426.641 377.172 425.775 376.891 424.621 377.174C423.467 377.456 420.293 376.892 421.447 378.863C422.601 380.833 423.467 380.833 421.159 380.833C418.85 380.833 417.984 379.426 417.984 381.396C417.984 383.366 415.964 387.87 415.964 387.87C415.964 387.87 401.824 383.93 401.247 382.241C400.67 380.551 404.998 379.707 404.133 378.019C403.267 376.33 402.979 376.329 402.979 373.797C402.979 371.264 404.71 370.7 404.71 370.7C404.71 370.7 406.153 370.138 405.576 369.011C404.999 367.885 402.69 368.448 405.576 367.041C408.462 365.633 420.294 322.566 420.294 322.566C420.294 322.566 420.294 301.171 424.045 294.135C427.797 287.1 424.911 236.995 433.859 236.432C442.808 235.869 487.243 239.529 487.243 239.529Z" fill="#2F2E41"/>
<path d="M484.358 255.573L482.626 299.202C482.626 299.202 491.283 341.424 488.397 354.372C485.512 367.32 487.532 365.631 485.8 367.883C484.068 370.135 482.626 369.009 484.068 370.98C485.511 372.95 486.374 373.513 484.068 375.766C481.763 378.019 480.606 383.366 480.606 383.366L465.889 381.959C465.889 381.959 469.64 375.485 468.195 374.078C466.749 372.67 463 374.922 465.889 371.828C468.777 368.735 470.506 370.139 468.775 368.732C467.043 367.325 464.446 367.888 466.754 365.636C469.062 363.384 471.661 363.387 469.351 362.54C467.042 361.693 464.444 362.54 465.6 360.851C466.756 359.161 468.197 357.192 468.197 357.192L464.735 331.577C464.735 331.577 460.695 323.132 461.849 319.473C463.003 315.814 456.942 285.695 456.942 285.695L484.358 255.573Z" fill="#2F2E41"/>
<path d="M478.01 385.335C478.01 385.335 480.896 382.52 481.762 384.209C482.627 385.899 488.974 401.098 485.224 402.224C481.474 403.35 475.99 404.473 473.105 403.631C470.219 402.789 464.159 398.845 456.945 398.845C449.731 398.845 443.671 395.748 443.671 394.623C443.671 393.497 442.517 386.741 447.999 386.741C453.482 386.741 463.582 380.549 463.582 380.549C463.582 380.549 465.888 376.045 467.045 376.327C468.202 376.609 467.333 385.615 467.333 385.615C467.333 385.615 473.969 391.809 478.01 385.335Z" fill="#2F2E41"/>
<path d="M413.947 388.994C413.947 388.994 416.544 382.802 419.141 384.208C421.738 385.614 420.007 403.065 420.007 403.065C420.007 403.065 417.701 406.724 411.061 405.88C404.421 405.036 386.822 403.065 382.781 403.91C378.741 404.754 367.776 399.969 370.662 393.495C370.662 393.495 372.104 389.836 379.03 390.117C385.956 390.398 398.653 382.235 398.653 382.235C398.653 382.235 400.673 376.606 401.25 377.169C401.827 377.731 402.404 387.584 402.404 387.584C402.404 387.584 409.907 392.372 413.947 388.994Z" fill="#2F2E41"/>
<path d="M451.749 129.47C460.993 129.47 468.487 122.161 468.487 113.144C468.487 104.127 460.993 96.8179 451.749 96.8179C442.506 96.8179 435.012 104.127 435.012 113.144C435.012 122.161 442.506 129.47 451.749 129.47Z" fill="#FEB8B8"/>
<path d="M464.735 114.27C464.735 114.27 473.68 131.721 476.855 133.41C480.029 135.1 455.212 145.515 455.212 145.515C455.212 145.515 451.172 128.344 446.267 124.685C441.361 121.026 464.735 114.27 464.735 114.27Z" fill="#FEB8B8"/>
<path d="M439.053 256.98L437.899 267.676C437.899 267.676 425.49 263.454 429.53 255.573L439.053 256.98Z" fill="#FEB8B8"/>
<path d="M434.149 240.936C442.806 249.941 488.686 242.341 488.686 242.341L488.111 235.867L493.883 229.96L492.152 202.373C492.152 202.373 497.343 189.427 498.208 169.723C498.26 168.512 498.185 167.299 497.984 166.102C495.009 148.452 465.545 137.083 464.735 137.35C464.328 137.481 459.991 139.686 455.465 142.005C450.268 144.668 444.826 147.484 444.826 147.484C437.9 150.021 439.055 190.555 436.745 194.214C434.434 197.872 436.745 210.534 436.745 210.534L434.149 222.637C434.149 222.637 425.489 231.931 434.149 240.936Z" fill="#F0F0F0"/>
<path opacity="0.1" d="M462.116 151.577C462.116 151.577 470.196 175.221 468.464 191.266C466.732 207.31 447.976 253.192 447.976 253.192L441.63 256.569V264.45L437.165 252.652L449.444 227.608C449.444 227.608 434.122 141.162 462.116 151.577Z" fill="black"/>
<path opacity="0.1" d="M454.538 144.482C462.91 139.98 475.608 151.806 488.881 164.469C493.648 169.015 496.405 168.557 497.986 166.102C495.011 148.451 465.546 137.083 464.737 137.35C464.329 137.481 459.992 139.685 455.466 142.005L454.538 144.482Z" fill="black"/>
<path d="M454.542 142.306L458.004 133.018C458.004 133.018 481.667 122.04 497.25 133.018L499.847 148.78C499.847 148.78 502.152 174.958 488.881 162.292C475.609 149.625 462.909 137.803 454.542 142.306Z" fill="#F0F0F0"/>
<path d="M461.273 147.766C461.273 147.766 469.353 171.41 467.621 187.455C465.889 203.499 447.133 249.381 447.133 249.381L440.784 252.761V260.642L427.51 256.983L430.396 247.695C430.396 247.695 425.779 242.065 428.954 240.376C432.128 238.687 431.551 229.398 431.551 229.398C431.551 229.398 433.281 137.351 461.273 147.766Z" fill="#F0F0F0"/>
<path d="M466.67 119.978C466.397 118.716 466.434 117.359 465.814 116.22C464.884 114.512 462.747 113.798 460.772 113.63C458.25 113.416 455.71 113.841 453.185 113.673C450.66 113.504 447.963 112.566 446.706 110.423C446.205 109.568 445.957 108.562 445.292 107.821C443.908 106.279 441.386 106.518 439.397 107.179C437.408 107.84 435.333 108.805 433.3 108.288C431.59 103.622 433.696 98.24 437.337 94.7851C440.978 91.3301 445.889 89.4709 450.766 88.0851C457.199 86.257 464.439 85.1769 470.353 88.2477C478.93 92.7004 481.956 104.486 481.165 113.27C480.866 116.591 480.377 120.351 477.625 122.592C473.592 125.878 467.888 125.596 466.67 119.978Z" fill="#C2BBBB"/>
<path d="M361.656 0.200104H0.154907V226.035H361.656V0.200104Z" fill="#E6E6E6"/>
<path d="M352.501 28.5253H11.674V212.675H352.501V28.5253Z" fill="white"/>
<path d="M361.501 0H0V14.9806H361.501V0Z" fill="#3C61E4"/>
<path d="M11.4133 10.4357C12.9855 10.4357 14.26 9.19255 14.26 7.65899C14.26 6.12543 12.9855 4.88223 11.4133 4.88223C9.84115 4.88223 8.56665 6.12543 8.56665 7.65899C8.56665 9.19255 9.84115 10.4357 11.4133 10.4357Z" fill="white"/>
<path d="M22.2176 10.4357C23.7898 10.4357 25.0643 9.19255 25.0643 7.65899C25.0643 6.12543 23.7898 4.88223 22.2176 4.88223C20.6455 4.88223 19.371 6.12543 19.371 7.65899C19.371 9.19255 20.6455 10.4357 22.2176 10.4357Z" fill="white"/>
<path d="M33.022 10.4357C34.5941 10.4357 35.8686 9.19255 35.8686 7.65899C35.8686 6.12543 34.5941 4.88223 33.022 4.88223C31.4498 4.88223 30.1753 6.12543 30.1753 7.65899C30.1753 9.19255 31.4498 10.4357 33.022 10.4357Z" fill="white"/>
<path d="M71.3028 54.3362L48.7582 76.0525L71.3028 97.7683L76.3754 92.8203L59.3279 76.1892L76.5179 59.4214L71.3028 54.3362Z" fill="#3C61E4"/>
<path d="M89.7751 54.3362L112.319 76.0525L89.7751 97.7683L84.7025 92.8203L101.751 76.1897L84.5601 59.4214L89.7751 54.3362Z" fill="#3C61E4"/>
<path d="M162.697 59.7859C160.853 59.7859 159.359 60.8204 159.359 62.0961C159.359 63.3717 160.853 64.4063 162.697 64.4063H320.085C321.929 64.4063 323.424 63.3717 323.424 62.0961C323.424 60.8204 321.929 59.7859 320.085 59.7859H162.697Z" fill="#E6E6E6"/>
<path d="M318.521 186.357H53.7545C51.048 186.357 48.8546 184.833 48.8516 182.954V137.372C48.8546 135.493 51.048 133.969 53.7545 133.969H318.521C321.227 133.969 323.42 135.493 323.423 137.372V182.954C323.421 184.832 321.227 186.355 318.521 186.357ZM53.7545 135.329C52.1305 135.329 50.8144 136.244 50.8127 137.371V182.953C50.8127 184.079 52.1305 184.993 53.7545 184.994H318.521C320.145 184.994 321.461 184.079 321.462 182.953V137.372C321.462 136.245 320.145 135.331 318.521 135.33L53.7545 135.329Z" fill="#E6E6E6"/>
<path d="M81.0193 171.698C87.5614 171.698 92.8648 166.525 92.8648 160.143C92.8648 153.762 87.5614 148.589 81.0193 148.589C74.4772 148.589 69.1738 153.762 69.1738 160.143C69.1738 166.525 74.4772 171.698 81.0193 171.698Z" fill="#FF7020"/>
<path d="M114.429 150.903C113.8 150.902 113.198 151.144 112.753 151.577C112.308 152.01 112.058 152.597 112.057 153.21C112.056 153.823 112.305 154.41 112.749 154.844C113.192 155.278 113.794 155.522 114.422 155.523H226.085C226.713 155.523 227.315 155.28 227.76 154.846C228.204 154.413 228.453 153.825 228.453 153.213C228.453 152.6 228.204 152.012 227.76 151.579C227.315 151.146 226.713 150.903 226.085 150.903H114.429Z" fill="#3C61E4"/>
<path d="M114.429 164.764C114.118 164.764 113.81 164.823 113.522 164.939C113.235 165.055 112.973 165.225 112.753 165.439C112.308 165.872 112.058 166.459 112.057 167.072C112.056 167.684 112.305 168.272 112.749 168.706C113.192 169.14 113.794 169.384 114.422 169.385H162.474C163.102 169.386 163.705 169.143 164.149 168.71C164.594 168.278 164.844 167.69 164.845 167.078C164.846 166.465 164.597 165.877 164.154 165.443C163.71 165.009 163.108 164.765 162.48 164.764H114.429Z" fill="#3C61E4"/>
<path d="M161.548 73.6264C160.953 73.6732 160.397 73.9369 159.993 74.3649C159.588 74.793 159.363 75.3541 159.363 75.9366C159.363 76.519 159.588 77.0801 159.993 77.5082C160.397 77.9363 160.953 78.2 161.548 78.2468H264.696C265.291 78.2 265.847 77.9363 266.252 77.5082C266.656 77.0801 266.881 76.519 266.881 75.9366C266.881 75.3541 266.656 74.793 266.252 74.3649C265.847 73.9369 265.291 73.6732 264.696 73.6264H161.548Z" fill="#E6E6E6"/>
<path d="M162.227 87.4669C160.643 87.4669 159.359 88.5015 159.359 89.7771C159.359 91.0527 160.643 92.0873 162.227 92.0873H297.436C299.02 92.0873 300.304 91.0527 300.304 89.7771C300.304 88.5015 299.02 87.4669 297.436 87.4669H162.227Z" fill="#E6E6E6"/>
</g>
<defs>
<clipPath id="clip0">
<rect width="500" height="406.007" fill="white"/>
</clipPath>
</defs>
</svg>
